<svg xmlns="http://www.w3.org/2000/svg" width="760" height="344" viewBox="0 0 760 344" font-family="-apple-system, 'Segoe UI', system-ui, sans-serif" role="img" aria-label="Decode — median latency (lower is better)">
<rect x="0.5" y="0.5" width="759" height="343" rx="8" fill="#1a1a19" stroke="rgba(255,255,255,0.10)"/>
<text x="16" y="30" font-size="15" font-weight="600" fill="#ffffff">Decode — median latency (lower is better)</text>
<text x="16" y="48" font-size="11" fill="#898781">RGBA8 test image · Apple M4 · Unity 6000.3 Editor · median of 20 runs</text>
<text x="16" y="76" font-size="12" font-weight="600" fill="#c3c2b7">360×280 (thumbnail)</text>
<text x="244" y="99.0" font-size="12" text-anchor="end" fill="#c3c2b7">UnityEngine ImageConversion.LoadImage</text>
<path d="M252,88 h346.0 a4,4 0 0 1 4,4 v6 a4,4 0 0 1 -4,4 h-346.0 z" fill="#898781"/>
<text x="610.0" y="99.0" font-size="12" fill="#ffffff">1.71 ms <tspan fill="#898781">(baseline)</tspan></text>
<text x="244" y="125.0" font-size="12" text-anchor="end" fill="#c3c2b7">FastImageConversion PNG (image-rs)</text>
<path d="M252,114 h116.76023391812865 a4,4 0 0 1 4,4 v6 a4,4 0 0 1 -4,4 h-116.76023391812865 z" fill="#3987e5"/>
<text x="380.7602339181286" y="125.0" font-size="12" fill="#ffffff">0.59 ms <tspan fill="#0ca30c" font-weight="600">· 2.9× faster</tspan></text>
<text x="244" y="151.0" font-size="12" text-anchor="end" fill="#c3c2b7">FastImageConversion PNG (fpng)</text>
<path d="M252,140 h139.27485380116957 a4,4 0 0 1 4,4 v6 a4,4 0 0 1 -4,4 h-139.27485380116957 z" fill="#3987e5"/>
<text x="403.27485380116957" y="151.0" font-size="12" fill="#ffffff">0.7 ms <tspan fill="#0ca30c" font-weight="600">· 2.5× faster</tspan></text>
<text x="244" y="177.0" font-size="12" text-anchor="end" fill="#c3c2b7">FastImageConversion WebP</text>
<path d="M252,166 h45.122807017543856 a4,4 0 0 1 4,4 v6 a4,4 0 0 1 -4,4 h-45.122807017543856 z" fill="#3987e5"/>
<text x="309.12280701754383" y="177.0" font-size="12" fill="#ffffff">0.24 ms <tspan fill="#0ca30c" font-weight="600">· 7.3× faster</tspan></text>
<line x1="252" y1="86" x2="252" y2="182" stroke="#383835" stroke-width="1"/>
<text x="16" y="210" font-size="12" font-weight="600" fill="#c3c2b7">4096×4096 (large image)</text>
<text x="244" y="233.0" font-size="12" text-anchor="end" fill="#c3c2b7">UnityEngine ImageConversion.LoadImage</text>
<path d="M252,222 h346.0 a4,4 0 0 1 4,4 v6 a4,4 0 0 1 -4,4 h-346.0 z" fill="#898781"/>
<text x="610.0" y="233.0" font-size="12" fill="#ffffff">272.7 ms <tspan fill="#898781">(baseline)</tspan></text>
<text x="244" y="259.0" font-size="12" text-anchor="end" fill="#c3c2b7">FastImageConversion PNG (image-rs)</text>
<path d="M252,248 h119.34066740007334 a4,4 0 0 1 4,4 v6 a4,4 0 0 1 -4,4 h-119.34066740007334 z" fill="#3987e5"/>
<text x="383.34066740007336" y="259.0" font-size="12" fill="#ffffff">96.1 ms <tspan fill="#0ca30c" font-weight="600">· 2.8× faster</tspan></text>
<text x="244" y="285.0" font-size="12" text-anchor="end" fill="#c3c2b7">FastImageConversion PNG (fpng)</text>
<path d="M252,274 h161.43821048771545 a4,4 0 0 1 4,4 v6 a4,4 0 0 1 -4,4 h-161.43821048771545 z" fill="#3987e5"/>
<text x="425.4382104877154" y="285.0" font-size="12" fill="#ffffff">128.9 ms <tspan fill="#0ca30c" font-weight="600">· 2.1× faster</tspan></text>
<text x="244" y="311.0" font-size="12" text-anchor="end" fill="#c3c2b7">FastImageConversion WebP</text>
<path d="M252,300 h31.55188852218555 a4,4 0 0 1 4,4 v6 a4,4 0 0 1 -4,4 h-31.55188852218555 z" fill="#3987e5"/>
<text x="295.55188852218555" y="311.0" font-size="12" fill="#ffffff">27.7 ms <tspan fill="#0ca30c" font-weight="600">· 9.9× faster</tspan></text>
<line x1="252" y1="220" x2="252" y2="316" stroke="#383835" stroke-width="1"/>
</svg>
