<svg xmlns="http://www.w3.org/2000/svg" width="760" height="344" viewBox="0 0 760 344" font-family="-apple-system, 'Segoe UI', system-ui, sans-serif" role="img" aria-label="Encode — median latency (lower is better)">
<rect x="0.5" y="0.5" width="759" height="343" rx="8" fill="#1a1a19" stroke="rgba(255,255,255,0.10)"/>
<text x="16" y="30" font-size="15" font-weight="600" fill="#ffffff">Encode — median latency (lower is better)</text>
<text x="16" y="48" font-size="11" fill="#898781">RGBA8 test image · Apple M4 · Unity 6000.3 Editor · median of 20 runs</text>
<text x="16" y="76" font-size="12" font-weight="600" fill="#c3c2b7">360×280 (thumbnail)</text>
<text x="244" y="99.0" font-size="12" text-anchor="end" fill="#c3c2b7">UnityEngine.ImageConversion (PNG)</text>
<path d="M252,88 h346.0 a4,4 0 0 1 4,4 v6 a4,4 0 0 1 -4,4 h-346.0 z" fill="#898781"/>
<text x="610.0" y="99.0" font-size="12" fill="#ffffff">3.53 ms <tspan fill="#898781">(baseline)</tspan></text>
<text x="244" y="125.0" font-size="12" text-anchor="end" fill="#c3c2b7">FastImageConversion PNG (image-rs)</text>
<path d="M252,114 h47.55807365439094 a4,4 0 0 1 4,4 v6 a4,4 0 0 1 -4,4 h-47.55807365439094 z" fill="#3987e5"/>
<text x="311.5580736543909" y="125.0" font-size="12" fill="#ffffff">0.52 ms <tspan fill="#0ca30c" font-weight="600">· 6.8× faster</tspan></text>
<text x="244" y="151.0" font-size="12" text-anchor="end" fill="#c3c2b7">FastImageConversion PNG (fpng)</text>
<path d="M252,140 h49.54107648725213 a4,4 0 0 1 4,4 v6 a4,4 0 0 1 -4,4 h-49.54107648725213 z" fill="#3987e5"/>
<text x="313.5410764872521" y="151.0" font-size="12" fill="#ffffff">0.54 ms <tspan fill="#0ca30c" font-weight="600">· 6.5× faster</tspan></text>
<text x="244" y="177.0" font-size="12" text-anchor="end" fill="#c3c2b7">FastImageConversion WebP</text>
<path d="M252,166 h78.29461756373938 a4,4 0 0 1 4,4 v6 a4,4 0 0 1 -4,4 h-78.29461756373938 z" fill="#3987e5"/>
<text x="342.2946175637394" y="177.0" font-size="12" fill="#ffffff">0.83 ms <tspan fill="#0ca30c" font-weight="600">· 4.3× faster</tspan></text>
<line x1="252" y1="86" x2="252" y2="182" stroke="#383835" stroke-width="1"/>
<text x="16" y="210" font-size="12" font-weight="600" fill="#c3c2b7">4096×4096 (large image)</text>
<text x="244" y="233.0" font-size="12" text-anchor="end" fill="#c3c2b7">UnityEngine.ImageConversion (PNG)</text>
<path d="M252,222 h346.0 a4,4 0 0 1 4,4 v6 a4,4 0 0 1 -4,4 h-346.0 z" fill="#898781"/>
<text x="610.0" y="233.0" font-size="12" fill="#ffffff">557.3 ms <tspan fill="#898781">(baseline)</tspan></text>
<text x="244" y="259.0" font-size="12" text-anchor="end" fill="#c3c2b7">FastImageConversion PNG (image-rs)</text>
<path d="M252,248 h64.07823434415936 a4,4 0 0 1 4,4 v6 a4,4 0 0 1 -4,4 h-64.07823434415936 z" fill="#3987e5"/>
<text x="328.07823434415934" y="259.0" font-size="12" fill="#ffffff">108.4 ms <tspan fill="#0ca30c" font-weight="600">· 5.1× faster</tspan></text>
<text x="244" y="285.0" font-size="12" text-anchor="end" fill="#c3c2b7">FastImageConversion PNG (fpng)</text>
<path d="M252,274 h54.40660326574556 a4,4 0 0 1 4,4 v6 a4,4 0 0 1 -4,4 h-54.40660326574556 z" fill="#3987e5"/>
<text x="318.40660326574556" y="285.0" font-size="12" fill="#ffffff">93 ms <tspan fill="#0ca30c" font-weight="600">· 6.0× faster</tspan></text>
<text x="244" y="311.0" font-size="12" text-anchor="end" fill="#c3c2b7">FastImageConversion WebP</text>
<path d="M252,300 h68.66283868652432 a4,4 0 0 1 4,4 v6 a4,4 0 0 1 -4,4 h-68.66283868652432 z" fill="#3987e5"/>
<text x="332.6628386865243" y="311.0" font-size="12" fill="#ffffff">115.7 ms <tspan fill="#0ca30c" font-weight="600">· 4.8× faster</tspan></text>
<line x1="252" y1="220" x2="252" y2="316" stroke="#383835" stroke-width="1"/>
</svg>
